<svg width="1071" height="396" viewBox="0 0 1071 396" fill="none" xmlns="http://www.w3.org/2000/svg">
<rect width="1071" height="396" fill="white"/>
<path d="M248.788 171.492V229.776L185.394 198.084V140.745C185.394 137.968 188.325 136.156 190.813 137.399L244.218 164.107C247.014 165.505 248.788 168.368 248.788 171.492Z" fill="#282929"/>
<path d="M185.394 266.463L122 234.771L185.394 198.075L248.788 229.776L185.394 266.463Z" fill="#886DE8"/>
<path d="M185.394 208.179V266.463L122 234.771V177.432C122 174.655 124.931 172.842 127.419 174.086L180.824 200.793C183.62 202.191 185.394 205.055 185.394 208.179Z" fill="#282929"/>
<path d="M351.299 203.049H388.911V206.057C388.911 212.893 388.101 218.948 386.491 224.213C384.919 229.091 382.268 233.642 378.527 237.894C370.071 247.411 359.33 252.164 346.275 252.164C333.221 252.164 322.634 247.565 313.552 238.367C304.469 229.13 299.928 218.042 299.928 205.113C299.928 192.183 304.546 180.7 313.783 171.502C323.02 162.265 334.262 157.647 347.51 157.647C354.625 157.647 361.268 159.102 367.439 162.014C373.34 164.926 379.134 169.641 384.833 176.168L375.046 185.54C367.574 175.599 358.482 170.624 347.751 170.624C338.119 170.624 330.039 173.951 323.521 180.584C316.994 187.112 313.735 195.288 313.735 205.113C313.735 214.937 317.37 223.605 324.639 230.171C331.437 236.265 338.813 239.312 346.748 239.312C353.507 239.312 359.581 237.036 364.961 232.476C370.341 227.877 373.349 222.371 373.986 215.969H351.289V203.059L351.299 203.049Z" fill="#282929"/>
<path d="M416.92 193.022V225.978C416.92 235.494 420.671 240.247 428.182 240.247C435.693 240.247 439.443 235.494 439.443 225.978V193.022H452.71V226.277C452.71 230.876 452.141 234.848 451.004 238.184C449.904 241.173 447.995 243.863 445.286 246.264C440.803 250.159 435.104 252.097 428.191 252.097C421.278 252.097 415.638 250.149 411.154 246.264C408.407 243.863 406.459 241.173 405.321 238.184C404.222 235.513 403.673 231.541 403.673 226.277V193.022H416.939H416.92Z" fill="#282929"/>
<path d="M511.775 193.022H525.1V250.448H511.775V244.432C506.308 249.542 500.436 252.097 494.15 252.097C486.205 252.097 479.649 249.233 474.462 243.487C469.313 237.634 466.739 230.316 466.739 221.552C466.739 212.788 469.313 205.769 474.462 200.032C479.61 194.295 486.06 191.422 493.803 191.422C500.484 191.422 506.482 194.17 511.785 199.675V193.013L511.775 193.022ZM480.295 221.562C480.295 227.067 481.77 231.55 484.72 235.002C487.748 238.502 491.556 240.247 496.155 240.247C501.073 240.247 505.035 238.56 508.063 235.176C511.09 231.676 512.604 227.241 512.604 221.851C512.604 216.461 511.09 212.026 508.063 208.526C505.035 205.103 501.102 203.397 496.271 203.397C491.711 203.397 487.902 205.123 484.836 208.584C481.809 212.084 480.295 216.403 480.295 221.552V221.562Z" fill="#282929"/>
<path d="M541.848 193.022H555.115V198.151C557.554 195.596 559.714 193.851 561.604 192.906C563.532 191.923 565.807 191.431 568.44 191.431C571.939 191.431 575.594 192.569 579.402 194.854L573.328 207.002C570.811 205.199 568.353 204.293 565.962 204.293C558.73 204.293 555.115 209.76 555.115 220.684V250.458H541.848V193.032V193.022Z" fill="#282929"/>
<path d="M628.517 150.869H641.842V250.448H628.517V244.432C623.291 249.542 617.371 252.097 610.766 252.097C602.908 252.097 596.381 249.233 591.194 243.487C586.045 237.634 583.471 230.316 583.471 221.552C583.471 212.788 586.045 205.826 591.194 200.089C596.304 194.314 602.725 191.422 610.477 191.422C617.197 191.422 623.214 194.169 628.517 199.675V150.869ZM597.037 221.562C597.037 227.067 598.512 231.55 601.462 235.002C604.49 238.502 608.298 240.247 612.897 240.247C617.815 240.247 621.777 238.56 624.805 235.176C627.832 231.676 629.346 227.241 629.346 221.851C629.346 216.461 627.832 212.026 624.805 208.526C621.777 205.103 617.843 203.397 613.013 203.397C608.452 203.397 604.644 205.122 601.578 208.584C598.55 212.084 597.037 216.403 597.037 221.552V221.562Z" fill="#282929"/>
<path d="M658.589 193.022H671.856V198.151C674.296 195.596 676.456 193.851 678.345 192.906C680.274 191.923 682.549 191.431 685.181 191.431C688.681 191.431 692.335 192.569 696.144 194.854L690.07 207.002C687.553 205.199 685.094 204.293 682.703 204.293C675.472 204.293 671.856 209.76 671.856 220.684V250.458H658.589V193.032V193.022Z" fill="#282929"/>
<path d="M745.258 193.022H758.583V250.448H745.258V244.432C739.792 249.542 733.92 252.097 727.633 252.097C719.689 252.097 713.132 249.233 707.945 243.487C702.796 237.634 700.222 230.316 700.222 221.552C700.222 212.788 702.796 205.769 707.945 200.032C713.094 194.295 719.544 191.422 727.286 191.422C733.968 191.422 739.965 194.17 745.268 199.675V193.013L745.258 193.022ZM713.778 221.562C713.778 227.067 715.253 231.55 718.204 235.002C721.231 238.502 725.04 240.247 729.639 240.247C734.556 240.247 738.519 238.56 741.546 235.176C744.574 231.676 746.088 227.241 746.088 221.851C746.088 216.461 744.574 212.026 741.546 208.526C738.519 205.103 734.585 203.397 729.755 203.397C725.194 203.397 721.386 205.123 718.319 208.584C715.292 212.084 713.778 216.403 713.778 221.552V221.562Z" fill="#7D54ED"/>
<path d="M773.326 169.149C773.326 166.835 774.174 164.83 775.861 163.133C777.549 161.445 779.573 160.597 781.936 160.597C784.298 160.597 786.381 161.445 788.068 163.133C789.755 164.781 790.604 166.806 790.604 169.207C790.604 171.608 789.755 173.652 788.068 175.339C786.419 177.026 784.394 177.875 781.994 177.875C779.593 177.875 777.549 177.026 775.861 175.339C774.174 173.652 773.326 171.589 773.326 169.149ZM788.598 193.032V250.458H775.331V193.032H788.598Z" fill="#7D54ED"/>
<path d="M818.661 150.869V250.448H805.394V150.869H818.661Z" fill="#282929"/>
<path d="M868.306 250.448L878.102 200.408L894.078 236.583L910.633 200.408L919.436 250.448H912.233L907.74 222.352L893.963 252.588L880.58 222.323L875.576 250.448H868.316H868.306Z" fill="#282929"/>
<path d="M936.309 203.907V243.853H950V250.457H929.29V203.907H936.318H936.309Z" fill="#282929"/>
</svg>
